<svg xmlns="http://www.w3.org/2000/svg" viewBox="0 0 600 800"><defs>
 <linearGradient id="bg" x1="0" y1="0" x2="1" y2="1"><stop offset="0" stop-color="#0d1b3d"/><stop offset="1" stop-color="#14243f"/></linearGradient>
 <linearGradient id="gold" x1="0" y1="0" x2="0" y2="1"><stop offset="0" stop-color="#f0c96a"/><stop offset="1" stop-color="#c9a84c"/></linearGradient>
 <linearGradient id="sgold" x1="0" y1="0" x2="1" y2="1"><stop offset="0" stop-color="#ffe9b0"/><stop offset="1" stop-color="#c9a84c"/></linearGradient>
</defs>
<rect width="600" height="800" fill="url(#bg)"/>
<rect x="14" y="14" width="572" height="772" fill="none" stroke="#c9a84c" stroke-width="3" opacity=".9"/>
<rect x="26" y="26" width="548" height="748" fill="none" stroke="#c9a84c" stroke-width="1" opacity=".5"/><text x="300" y="300" fill="url(#gold)" font-family="Georgia,'Times New Roman',serif" font-size="64" font-weight="700" text-anchor="middle" letter-spacing="4"> <tspan>MODERN</tspan></text>
<line x1="150" y1="326" x2="450" y2="326" stroke="#c9a84c" stroke-width="2" opacity=".8"/>
<text x="300" y="362" fill="#e8eefc" font-family="Georgia,serif" font-size="26" text-anchor="middle" letter-spacing="6">INDIA</text>
<text x="300" y="254" fill="#f0c96a" font-family="Georgia,serif" font-size="20" text-anchor="middle" letter-spacing="6">PURVAVALOKAN 2026</text><path d="M180 430 L420 430 L420 445 L180 445 Z" fill="#ff9933" opacity=".9"/>
<path d="M180 445 L420 445 L420 455 L180 455 Z" fill="#ffffff" opacity=".9"/>
<path d="M180 455 L420 455 L420 470 L180 470 Z" fill="#138808" opacity=".9"/>
<rect x="174" y="428" width="6" height="150" fill="#c9a84c"/>
<circle cx="300" cy="450" r="17" fill="none" stroke="#0a5aa8" stroke-width="4" opacity="0.95"/><line x1="303.1" y1="450.0" x2="315.6" y2="450.0" stroke="#0a5aa8" stroke-width="3" opacity="0.76"/><line x1="303.0" y1="450.8" x2="315.1" y2="454.0" stroke="#0a5aa8" stroke-width="3" opacity="0.76"/><line x1="302.7" y1="451.5" x2="313.5" y2="457.8" stroke="#0a5aa8" stroke-width="3" opacity="0.76"/><line x1="302.2" y1="452.2" x2="311.1" y2="461.1" stroke="#0a5aa8" stroke-width="3" opacity="0.76"/><line x1="301.5" y1="452.7" x2="307.8" y2="463.5" stroke="#0a5aa8" stroke-width="3" opacity="0.76"/><line x1="300.8" y1="453.0" x2="304.0" y2="465.1" stroke="#0a5aa8" stroke-width="3" opacity="0.76"/><line x1="300.0" y1="453.1" x2="300.0" y2="465.6" stroke="#0a5aa8" stroke-width="3" opacity="0.76"/><line x1="299.2" y1="453.0" x2="296.0" y2="465.1" stroke="#0a5aa8" stroke-width="3" opacity="0.76"/><line x1="298.5" y1="452.7" x2="292.2" y2="463.5" stroke="#0a5aa8" stroke-width="3" opacity="0.76"/><line x1="297.8" y1="452.2" x2="288.9" y2="461.1" stroke="#0a5aa8" stroke-width="3" opacity="0.76"/><line x1="297.3" y1="451.5" x2="286.5" y2="457.8" stroke="#0a5aa8" stroke-width="3" opacity="0.76"/><line x1="297.0" y1="450.8" x2="284.9" y2="454.0" stroke="#0a5aa8" stroke-width="3" opacity="0.76"/><line x1="296.9" y1="450.0" x2="284.4" y2="450.0" stroke="#0a5aa8" stroke-width="3" opacity="0.76"/><line x1="297.0" y1="449.2" x2="284.9" y2="446.0" stroke="#0a5aa8" stroke-width="3" opacity="0.76"/><line x1="297.3" y1="448.5" x2="286.5" y2="442.2" stroke="#0a5aa8" stroke-width="3" opacity="0.76"/><line x1="297.8" y1="447.8" x2="288.9" y2="438.9" stroke="#0a5aa8" stroke-width="3" opacity="0.76"/><line x1="298.5" y1="447.3" x2="292.2" y2="436.5" stroke="#0a5aa8" stroke-width="3" opacity="0.76"/><line x1="299.2" y1="447.0" x2="296.0" y2="434.9" stroke="#0a5aa8" stroke-width="3" opacity="0.76"/><line x1="300.0" y1="446.9" x2="300.0" y2="434.4" stroke="#0a5aa8" stroke-width="3" opacity="0.76"/><line x1="300.8" y1="447.0" x2="304.0" y2="434.9" stroke="#0a5aa8" stroke-width="3" opacity="0.76"/><line x1="301.5" y1="447.3" x2="307.8" y2="436.5" stroke="#0a5aa8" stroke-width="3" opacity="0.76"/><line x1="302.2" y1="447.8" x2="311.1" y2="438.9" stroke="#0a5aa8" stroke-width="3" opacity="0.76"/><line x1="302.7" y1="448.5" x2="313.5" y2="442.2" stroke="#0a5aa8" stroke-width="3" opacity="0.76"/><line x1="303.0" y1="449.2" x2="315.1" y2="446.0" stroke="#0a5aa8" stroke-width="3" opacity="0.76"/>
<path d="M190 610 C240 560 300 600 350 570 C390 548 420 575 430 600 Z" fill="none" stroke="#e6c266" stroke-width="3" opacity=".85"/>
<circle cx="215" cy="612" r="4" fill="#e6c266"/><circle cx="265" cy="594" r="4" fill="#e6c266"/><circle cx="320" cy="612" r="4" fill="#e6c266"/><circle cx="380" cy="590" r="4" fill="#e6c266"/>
<text x="300" y="672" fill="#94a3b8" font-family="Georgia,serif" font-size="18" text-anchor="middle" letter-spacing="5">CONCEPT &amp; PRACTICE</text></svg>